<?xml version="1.0" encoding="UTF-8" standalone="no"?>
<!-- Created with Inkscape (http://www.inkscape.org/) -->

<svg
   version="1.1"
   id="svg2"
   width="1122.52"
   height="1122.52"
   viewBox="0 0 1122.52 1122.52"
   sodipodi:docname="18520841.eps"
   xmlns:inkscape="http://www.inkscape.org/namespaces/inkscape"
   xmlns:sodipodi="http://sodipodi.sourceforge.net/DTD/sodipodi-0.dtd"
   xmlns="http://www.w3.org/2000/svg"
   xmlns:svg="http://www.w3.org/2000/svg">
  <defs
     id="defs6" />
  <sodipodi:namedview
     id="namedview4"
     pagecolor="#ffffff"
     bordercolor="#000000"
     borderopacity="0.25"
     inkscape:showpageshadow="2"
     inkscape:pageopacity="0.0"
     inkscape:pagecheckerboard="0"
     inkscape:deskcolor="#d1d1d1" />
  <g
     id="g8"
     inkscape:groupmode="layer"
     inkscape:label="ink_ext_XXXXXX"
     transform="matrix(1.3333333,0,0,-1.3333333,0,1122.52)">
    <g
       id="g10"
       transform="scale(0.1)">
      <path
         d="M 8418.9,0 H 0 V 8418.9 H 8418.9 V 0"
         style="fill:#ffffff;fill-opacity:1;fill-rule:nonzero;stroke:none"
         id="path12" />
      <path
         d="m 5124.17,4164.84 c 9.21,-3.78 19.59,-5.51 31.12,-5.12 11.06,0.45 21.9,2.97 32.52,7.48 10.64,4.49 20.05,10.28 28.26,17.38 8.24,7.11 15.11,15.23 20.68,24.46 5.53,9.23 9.01,18.96 10.45,29.26 2.93,21.03 -2.49,38.68 -16.2,52.86 -13.78,14.15 -31.94,20.8 -54.54,19.97 -11.55,-0.4 -22.48,-2.73 -32.82,-7.01 -10.38,-4.29 -19.64,-10 -27.85,-17.1 -8.25,-7.08 -15.17,-15.38 -20.71,-24.83 -5.6,-9.45 -9.1,-19.33 -10.54,-29.6 -1.41,-10.3 -0.66,-19.91 2.35,-28.8 2.99,-8.94 7.66,-16.69 13.98,-23.33 6.32,-6.64 14.06,-11.85 23.3,-15.62"
         style="fill:#d42132;fill-opacity:1;fill-rule:nonzero;stroke:none"
         id="path14" />
      <path
         d="m 6111.08,3704.29 c 8.2,-6.22 16.13,-5.5 23.84,2.16 29.21,29.69 50.42,57.83 63.67,84.36 13.28,26.59 20,49.96 20.19,70.24 0.15,20.28 -4.96,36.8 -15.45,49.52 -10.47,12.7 -24.56,20.11 -42.33,22.2 -6.89,0.73 -12.7,-2.05 -17.36,-8.33 -4.63,-6.28 -6.86,-13.65 -6.65,-22.06 -0.11,-16.82 -1.24,-33.01 -3.5,-48.5 -2.25,-15.54 -4.95,-30.03 -8.13,-43.53 -3.14,-13.52 -6.8,-25.9 -10.88,-37.14 -4.08,-11.27 -7.73,-20.81 -10.98,-28.59 -2.68,-6.84 -3.44,-14.24 -2.22,-22.22 1.24,-7.96 4.47,-14 9.8,-18.11"
         style="fill:#d42132;fill-opacity:1;fill-rule:nonzero;stroke:none"
         id="path16" />
      <path
         d="m 5721.79,3620.16 c 0.29,1.99 -2.77,16.84 -2.33,18.87 l 0.3,-0.27 c 1.49,64.36 87.45,189.66 191.1,208.32 101.89,18.35 -0.5,-190.25 -189.07,-226.92 z m -1751.84,234.71 c -0.94,1.75 -12.44,11.65 -13.34,13.52 l 0.4,-0.03 c -38.03,51.95 -46.29,203.65 24.48,281.65 69.62,76.68 115.59,-151.11 -11.54,-295.14 z m -746.08,172.22 c 83.85,51.77 69.2,-96.03 108.47,-248.93 -144.48,-165.52 -233.83,171.54 -108.47,248.93 z m 2794.88,-243.98 c -10.55,139.86 -243.01,187.23 -369.89,-3.01 -16.37,-24.54 -27.66,-48 -34.66,-70.17 -38.45,-42.55 -94.82,-96.79 -146.29,-78.53 -52.28,18.57 50.9,149.68 83.69,211.94 33.64,63.88 23.6,114.09 -34.59,128.26 -56.99,13.88 -159.87,-40.24 -235.11,-152.52 16.07,23.98 48.65,105.94 85.5,151.97 22.03,27.48 -8.9,55.45 -54,70.15 -51.54,16.9 -60.12,-1.6 -76.73,-21.79 -30.03,-36.65 -62.05,-94.16 -84.26,-153.98 -14.26,-38.44 -57.52,-108.79 -97.91,-103.07 -27.31,3.83 -24.39,40.05 -18.98,67.84 12.3,63.83 68.13,178.7 102.29,217.24 36.92,41.43 -84.27,80.28 -118.25,54.76 -4.44,-3.39 -12.36,-15.41 -23.72,-36.03 -28.26,-51.12 -68.26,-159.85 -107.07,-206.05 -57.47,-68.37 -112.78,-95.17 -128.26,-49.77 -8.29,24.21 55.03,199.72 113.25,343.65 21.97,-5.28 38.25,-9.2 45.12,-10.38 23.65,-4.21 116.21,29.19 2.48,74.95 -5.97,2.39 -12,4.59 -18.1,6.69 27.22,64.09 49.81,112.16 57.96,120.92 5.61,6.56 7.41,13.05 5.34,19.47 -2.09,6.39 -6.61,12.1 -13.53,17.14 -26.4,19.01 -89.55,29.77 -112.12,12.18 -2.74,-2.12 -7.4,-8.87 -14.06,-20.37 -17.27,-29.85 -37.75,-74.73 -51.61,-107.02 -2.16,-5.01 -4.46,-10.41 -6.81,-15.97 -58.82,4.75 -103.05,1.17 -103.05,1.17 -56.76,-2.69 -58.35,-49.77 -1.9,-56.69 23.91,-2.93 50.3,-7.4 76.82,-12.56 -28.51,-70.88 -60.71,-157.07 -80.92,-229.08 -4.43,-15.69 -22.32,-61.77 -28.36,-69.33 -18.12,-22.61 -39.75,-38.3 -65.23,-37.59 -55.48,1.58 -0.16,168.71 13.29,242.48 12.99,71.12 -13.25,123.45 -72.94,118.6 -58.48,-4.74 -139.26,-93.56 -175.69,-232.19 7.79,29.57 13.1,123.43 33.76,182.27 12.32,35.11 -25.78,53.27 -73.26,53.3 -54.21,0.09 -56.6,-21.45 -66.08,-47.44 -16.04,-44.28 -25.51,-99.61 -29.65,-147.04 -14.36,-83.05 -59.2,-176.87 -135.26,-197.72 -24.72,-6.76 -46.7,-4.77 -65.2,5.57 198.82,158.54 137.3,312.71 111.25,339.72 -85.31,88.52 -306.76,0.23 -291.37,-227.9 5.28,-77.81 33.94,-128.09 73.11,-156.48 -30.23,-22.21 -64.73,-33.08 -103.37,-22.74 -105.96,9.64 -94.95,454.95 -85.36,561.23 1.87,20.64 3.86,34.96 5.94,42.93 2.4,8.57 1.31,15.5 -3.27,20.8 -16.39,18.79 -57.25,13.1 -81.14,5.98 -15.61,-4.68 -38.45,-14.75 -45.84,-29.38 -6.23,-12.21 -7.44,-108.12 -7.57,-121.86 -0.58,-63.41 1.69,-129.54 7.68,-195.91 1.59,-17.52 -3.2,-92.31 -9.33,-126.3 -8.83,-49.01 -25.64,-104.73 -74.07,-111.78 -69.52,-10.07 -78.24,278.32 -63.22,349.29 10.57,49.97 -72.02,53.27 -115.36,25.48 -19.8,-12.57 -22.26,-20.91 -20.83,-92.56 -31.91,55.91 -154.82,53.12 -205.98,-36.59 -48.15,-84.36 -33.85,-234.42 -2.29,-311.71 68.3,-167.19 247.14,-132.96 274.73,3.76 67.51,-122.34 202.24,-51.57 231.28,105.96 2.11,11.4 4.28,27.15 5.94,44.06 0.56,-2.86 0.98,-5.88 1.54,-8.73 7.78,-38.29 17.65,-71.37 29.58,-99.27 11.92,-27.84 31.95,-90.02 103.26,-91.63 60.16,-1.36 127.63,22.37 193.01,70.21 84.73,-31.64 173.29,11.59 238.93,91.21 10.77,13.07 22.57,27.5 33.85,41.93 9.29,-80.19 38.71,-143.06 99.72,-141.69 4.91,0.13 10.36,1.97 16.19,5.53 5.88,3.56 8.91,9.83 9.21,18.81 1.32,50.97 3.13,77.73 24.46,146.22 12.69,40.77 58.01,168.37 91.44,169.07 25.06,0.59 3.07,-65.17 -10.2,-154.15 -12.51,-84.33 -9.92,-170.12 69.21,-180.8 58.65,-7.89 105.64,26.99 141.55,70.65 -1.15,-52.84 12.48,-97.97 64.39,-107.14 76.81,-13.56 152.56,42.56 209.14,107.24 -1.28,-8.88 -2.33,-17.6 -2.95,-26.13 -5.88,-81.92 26.46,-106.71 63.03,-111.82 57.96,-8.08 114.63,32.92 155.3,74.2 -8.31,-64.33 4.81,-118.1 57.06,-133.89 4.7,-1.44 10.41,-1.48 16.99,-0.1 6.61,1.34 11.35,5.99 14.31,13.89 16.15,45.03 25.72,68.3 66.05,122.71 24.02,32.41 104.49,132.06 136.51,122.36 24,-7.22 -16.19,-59.02 -54.87,-134.22 -36.6,-71.26 -59.3,-148.47 12.82,-182.5 86.11,-40.59 176.05,27.06 230.15,75.82 4.31,-126.72 160.69,-193.6 267.59,-147.42 47.7,20.7 74.09,41.86 96.16,57.7 14.45,9.34 12.74,26.8 3.54,32.21 -3.03,1.78 -6.36,1.53 -9.95,-0.73 -44.58,-26.91 -105.29,-88.43 -190.99,-53.4 -23.71,9.7 -39.89,24.7 -48.3,44.17 254.27,4.44 299.51,146 295.33,201.44"
         style="fill:#d42132;fill-opacity:1;fill-rule:nonzero;stroke:none"
         id="path18" />
      <path
         d="m 6456.89,3616.01 c -23.28,-21.04 -68.27,-35.28 -116.32,-45.12 37.32,65.06 60.6,111.4 107.4,118.44 37.42,5.6 35.31,-49.45 8.92,-73.32 z m -177.04,49.58 c -9.17,-12.5 -36.15,-53.2 -67.54,-103.47 -20.6,-1.93 -54.95,-10.22 -61.72,-11.21 -9.62,-1.39 -26.21,-35.55 41.15,-26.19 -47.63,-76.41 -63.9,-97.33 -77.45,-109.84 -22.18,-20.25 -39.28,3.43 -36.39,33.39 1.23,11.94 3.22,17.27 -4.74,23.12 -32.29,23.26 -66.89,-60.73 -3.76,-116.9 63.01,-56.23 126.19,-15.38 136.15,-8.95 33.41,21.61 69.38,103.11 114.26,187.64 49.24,2.69 88.66,9.85 128.16,30.82 51.51,27.38 72.94,71.08 63.4,112.23 -11.55,49.7 -134.46,121.58 -231.52,-10.64"
         style="fill:#d42132;fill-opacity:1;fill-rule:nonzero;stroke:none"
         id="path20" />
      <path
         d="m 2123.13,4044.7 c -154.03,51.63 -239.89,-43.51 -251.11,-112.22 -8.36,-51.23 1.41,-115.04 51.22,-142.46 -2.11,10.58 -13.61,72.96 56.25,100.05 149.24,57.82 212.37,-161.01 73.67,-227.45 -133.01,-63.73 -325.95,21.03 -359.66,215.58 -33.7,194.61 64.2,344.62 233.23,379.72 131.6,27.33 238.91,7.11 364.72,-194.99 9.66,-17.94 92.6,-166.92 210.44,-370.34 98.71,-170.38 246.15,-331.79 378.83,-215.21 131.18,115.24 94.1,514.83 46.84,682.28 -88.67,314.3 -319.07,266.6 -334.5,174.02 -2.25,-13.59 1.4,-63.12 58.3,-79.59 161.95,-20.01 319.05,-492.74 196.13,-687.4 -70.66,-111.84 -336.64,464.9 -441,598.66 -144.49,185.15 -280.56,207.59 -454.5,175.34 -435.01,-80.68 -402.47,-680.72 -50.49,-755.84 375.93,-80.24 468.51,377.1 221.63,459.85"
         style="fill:#d42132;fill-opacity:1;fill-rule:nonzero;stroke:none"
         id="path22" />
      <path
         d="m 4224.13,2045.18 c 0,0 -36.62,156.29 -136.94,119.02 -115.09,-42.76 -48.67,-224.68 13.2,-327.65 62.32,-103.82 123.74,-140.55 123.74,-140.55 0,0 232.29,159.1 208.92,375.98 -9.64,89.36 -150.46,163.28 -208.92,-26.8"
         style="fill:#d42132;fill-opacity:1;fill-rule:nonzero;stroke:none"
         id="path24" />
      <path
         d="m 2352.18,3480.15 c -85.54,22.74 -205.98,-85.72 -53.56,-209.76 0,0 -157.01,20.83 -160.39,-88.61 -3.83,-125.59 187.85,-127.07 305.4,-104.67 118.52,22.57 175.17,68.28 175.17,68.28 0,0 -59.03,279.54 -266.62,334.76"
         style="fill:#d42132;fill-opacity:1;fill-rule:nonzero;stroke:none"
         id="path26" />
      <path
         d="m 3638.76,5418.67 c 103.22,-46.36 175.2,-41.79 175.2,-41.79 0,0 137.05,245.74 17.71,399.45 -49.22,63.38 -209.54,45 -176.03,-131.81 0,0 -103.82,100.27 -177.28,18.25 -84.29,-94.08 58.01,-198.11 160.4,-244.1"
         style="fill:#d42132;fill-opacity:1;fill-rule:nonzero;stroke:none"
         id="path28" />
      <path
         d="m 1966.5,4494.28 c 129.41,85.13 174.15,167.36 174.15,167.36 0,0 -207.32,302.96 -480.53,266.4 -112.62,-15.08 -202.16,-203.17 39.5,-275.54 0,0 -196.36,-52.47 -146.59,-184.18 57.13,-151.07 285.1,-58.48 413.47,25.96"
         style="fill:#d42132;fill-opacity:1;fill-rule:nonzero;stroke:none"
         id="path30" />
      <path
         d="m 6743.44,5130.64 c 96.36,172.3 -71.43,492.37 -423.55,231.53 0,0 131.74,327.65 -102.88,395.41 -269.21,77.63 -378.21,-335.63 -394.68,-601.98 -16.7,-268.45 50.77,-416.09 50.77,-416.09 0,0 636.46,-26.78 870.34,391.13"
         style="fill:#d42132;fill-opacity:1;fill-rule:nonzero;stroke:none"
         id="path32" />
      <path
         d="m 3412.55,5818.31 c 23.35,46.57 -24.74,128.83 -114.34,55.85 0,0 30.75,87.93 -31.89,102.9 -71.83,17.21 -95.53,-92.95 -96.66,-163.29 -1.16,-70.93 18.41,-108.98 18.41,-108.98 0,0 167.94,0.63 224.48,113.52"
         style="fill:#d42132;fill-opacity:1;fill-rule:nonzero;stroke:none"
         id="path34" />
      <path
         d="m 3298.93,4583.96 c -71.85,17.22 -95.55,-92.95 -96.69,-163.28 -1.16,-70.93 18.39,-108.99 18.39,-108.99 0,0 167.96,0.62 224.52,113.54 23.34,46.54 -24.75,128.81 -114.34,55.86 0,0 30.72,87.89 -31.88,102.87"
         style="fill:#d42132;fill-opacity:1;fill-rule:nonzero;stroke:none"
         id="path36" />
      <path
         d="m 2459.53,5710.21 c 60.46,-8.89 95.15,3.56 95.15,3.56 0,0 18.21,143.57 -71.95,204.47 -37.17,25.11 -112.79,-6.78 -60.47,-91.47 0,0 -71.67,36.08 -91.45,-15.74 -22.7,-59.46 68.75,-92 128.72,-100.82"
         style="fill:#d42132;fill-opacity:1;fill-rule:nonzero;stroke:none"
         id="path38" />
      <path
         d="m 5943.25,4211.99 c 0,0 -127.62,-68.19 -125.16,-176.97 1.05,-44.83 70.78,-88.07 109.61,3.6 0,0 12.05,-79.31 65.74,-65.5 61.62,15.9 35.27,109.3 7.77,163.32 -27.72,54.47 -57.96,75.55 -57.96,75.55"
         style="fill:#d42132;fill-opacity:1;fill-rule:nonzero;stroke:none"
         id="path40" />
      <path
         d="m 3588.21,2671.71 c -29.26,51.72 101.11,86.25 97.95,106.87 18.44,-120.45 -82.13,-134.81 -97.95,-106.87 z m -208.49,-166.86 c 219.17,134.23 189.69,564.9 -118.75,601.26 -53.83,6.35 -190.95,-22.34 -223.21,-134.56 -41.61,-144.69 84.5,-174.18 84.5,-174.18 0,0 -61.4,139.36 88.3,149.42 180.7,12.14 217.18,-238.97 101.9,-387.15 -129.98,-167 -448.06,-146.4 -516,111.71 -67.89,258.1 51.56,485.25 259.54,663.52 196.38,168.37 623.28,259.17 816.43,123.44 103.81,-72.93 145.9,-185.16 129.06,-319.82 -20.41,-163.21 -140.28,-238.49 -200.94,-272.72 -18.58,139.25 -171.07,445.43 -135.93,538.75 2.62,6.65 1.53,11.38 -3.26,14.29 -12.79,7.67 -36.92,1.86 -51.13,-2.56 -28.6,-8.88 -49.5,-21.3 -65.81,-34.47 -95.78,-77.81 88.48,-357.39 134.41,-551.91 -23.92,-14.22 -46.15,-26.15 -59.84,-35.55 -89.78,-61.73 -85.59,-135.7 -49.93,-166.75 63.02,-54.88 238.86,16.22 236.3,175.72 260.92,97.22 386.63,280.99 361.33,448.31 -39.88,263.76 -254.15,319.92 -350.04,336.82 -295.61,52.08 -699.54,-92.45 -901.54,-328.51 -326,-381.05 -201.39,-834.04 166.41,-856.48 86.71,-5.29 169.86,18.36 188.62,26.43 53.45,16.27 129.15,34.38 237.61,37.47 209.31,5.9 245.58,-111.81 213.9,-204.83 -31.69,-93.02 -164.7,-77.19 -169.22,10.91 -48.12,9.47 -137.43,-133.25 -0.56,-195.98 203.76,-93.39 358.25,189.38 209,356.52 -92.3,103.33 -263.7,93.46 -381.15,70.9"
         style="fill:#d42132;fill-opacity:1;fill-rule:nonzero;stroke:none"
         id="path42" />
      <path
         d="m 4845.11,5476.64 c 55.05,49.74 112.32,121.45 176.1,194.06 118.52,134.91 219.75,249.48 410.2,264.05 489.11,37.42 393.71,-464.79 138.4,-540.54 -329.68,-97.82 -399.7,340.46 -143.77,358.04 0,0 -87.44,41.32 -190.41,-4.05 -102.95,-45.38 -192.61,-287.75 22.91,-405.47 263.58,-143.99 521.25,27.45 551.64,265.64 35.53,278.68 -185.18,424.59 -383.44,411.49 -194.73,-12.86 -291.51,-117.93 -417.1,-276.82 -125.62,-158.89 -229.14,-297.4 -337.62,-334.81 -113.36,-39.08 -171.19,3.03 -198.39,52.65 -37.29,68 5.03,153.78 83.85,145.16 78.81,-8.64 72.25,-91.01 72.25,-91.01 85.92,69.24 7.54,191.81 -97.91,167.32 -122.85,-28.53 -168.61,-185.27 -75.5,-274.21 87.14,-83.26 217.09,-86.71 388.79,68.5"
         style="fill:#d42132;fill-opacity:1;fill-rule:nonzero;stroke:none"
         id="path44" />
      <path
         d="m 2418.29,5571.8 c 242.13,-101.82 433.86,-76.81 571.63,144.36 137.76,221.17 -95.52,514.4 -310.37,366.86 -144.34,-99.09 -13.61,-244.83 39.62,-224.43 -12.35,101.84 136.91,146.44 191.71,46.19 54.83,-100.25 17.8,-412.52 -330.45,-340.39 -44.41,9.18 -217.41,80.41 -325.68,108.12 -112.15,28.72 -222.59,-54.66 -114.1,-180.25 0,0 -2.26,197.25 277.64,79.54"
         style="fill:#d42132;fill-opacity:1;fill-rule:nonzero;stroke:none"
         id="path46" />
      <path
         d="m 5203.94,4469.94 c -134.43,-32.61 -130.71,114.83 -39.54,169.55 93.47,56.08 155.72,60.32 222.06,67.96 -27.78,-56.85 -119.64,-222.27 -182.52,-237.51 z m -144.64,480.71 c -29.92,-74.93 -79.69,-113.45 -122.5,-98.32 -26.02,9.22 -45.9,90.53 75.7,111.57 15.86,2.75 37.35,2.91 51.37,1.04 -1.31,-3.79 -3.12,-10.62 -4.57,-14.29 z m -484.88,20.86 c -16.52,-78.99 -58.94,-125.5 -103.65,-117.98 -27.24,4.6 -60.86,81.28 55.29,122.98 15.15,5.42 29.06,9.01 48.69,11.82 -0.63,-3.95 0.47,-12.94 -0.33,-16.82 z m -751.36,209.73 c 87.45,40.02 57.97,-121.88 77.58,-274.69 -159.86,-142.93 -208.31,214.83 -77.58,274.69 z m -1417.04,139.08 c 69.2,-59.85 80.25,-251.06 -210.51,-281.7 -17.8,-1.88 -35.16,-2.64 -52.16,-2.57 -44.86,274.03 163.23,370.27 262.67,284.27 z m 4200.76,-651.6 c -250.73,46.16 -379.5,-152.68 -306.91,-268.82 37.04,174.78 481.64,186.06 441.29,-175.64 -16.26,-145.69 -182.82,-276.82 -384.36,-209.01 -151.29,50.9 -244.66,152.76 -339.5,345.08 -99.57,202 -135.09,235.78 -203.39,288.97 -133.28,103.82 -275.52,103.74 -307.99,106.36 9.66,23.51 17.39,42.84 19.55,49.38 39.61,121.38 93.75,307.63 127.42,348.18 26.94,35.68 -60.77,67.92 -109.28,57.37 -58.47,-12.93 -37.05,-215.22 -129.98,-320.51 -23.13,-26.23 -61.41,-25.98 -52.77,50.67 7.39,66.49 54.82,185.23 84.6,224.7 27.19,35.99 -50.09,63.01 -99.72,54.57 -22.35,-3.76 -30.51,-9.66 -57.64,-82.09 -14.56,-38.87 -31.29,-91.11 -41.69,-143.31 -23.54,4.14 -55.34,8.45 -93.69,10.54 10.05,75.3 -9.34,158.13 -65.87,193.52 -84.24,52.78 -156.82,6.23 -196.32,-31.39 -20.27,-19.28 -40.11,-45.79 -43.91,-52.56 3.99,79.54 5.89,196.72 4.24,205.5 -8.11,41.56 -67.58,10.76 -91.14,4.6 -29.07,-7.63 -25.41,-40.46 -38.38,-274.84 0,0 -30.3,-3.24 -68.02,-8.35 -3.11,75.89 -32.71,153.83 -94.51,178.94 -139.28,56.66 -213.05,-105.93 -213.05,-105.93 -2.67,-3.51 -5.1,-8.14 -7.37,-13.51 3.19,94.03 1.67,182.14 -8.64,237.12 -8.3,43.9 -96.65,26.08 -111.69,15.89 -17.1,-11.6 -39.15,-25.43 -21.53,-182.39 -9.76,-45.16 -28.44,-116.73 -51.49,-175.09 -17.85,-45.22 -45.74,-93.67 -87.24,-84.59 -66.98,14.64 -42.27,278.98 -19.21,345.9 16.27,47.15 -63.31,60.28 -108.63,38.57 -20.71,-9.8 -24.07,-17.57 -31.31,-87.14 -24.2,58.01 -138.33,66.43 -212.99,-18.05 -67.83,-76.76 -60.88,-209.96 -39.64,-288.6 -22.85,-76.3 -59.96,-132.01 -116.94,-138.51 -165.07,-18.86 -182.52,613.14 -186.21,773.36 -0.57,24.36 -0.04,41.35 1.56,51 11.58,63.24 -120.19,11.41 -132.61,-38.4 -23.36,-93.66 -6.26,-316.6 28.9,-484.83 -14.56,-19.67 -119.17,-41.74 -147.87,-55.33 -21.97,98.92 -101.81,418.07 -35.9,495.97 12.56,17.56 -34.86,33.01 -82.45,21.58 -181.45,2.79 -280.07,-309.04 -361.59,-453.25 -93.06,-164.66 -188.17,-206.67 -306.01,-189.83 -76.31,10.9 -142.16,63.58 -158.02,124.59 59.84,3.36 114.98,12.77 157.53,23.92 258.93,67.93 295.44,326.97 129.55,386.42 -224.46,80.44 -380.66,-162.61 -341.6,-381.27 -185.18,17.52 -318.68,132.52 -305.96,255.28 13.77,132.85 174.34,198.94 251.7,83.31 -30.6,209.15 -232.6,186.7 -292.46,138.07 -62.13,-50.46 -126.93,-151.11 -54.24,-301.13 70.84,-146.25 258.03,-206.82 407.74,-205.75 29.81,-107.17 114.1,-201.06 282.44,-196.39 279.28,7.75 378.61,393.79 497.7,575.71 -1.16,-67.87 29,-216.39 48.21,-306.74 0.09,-0.41 37.42,-156.25 65.47,-278.24 82.54,-359.22 -99.35,-362.21 -234.35,-267.92 -126.4,88.28 -261.07,222.95 -389.44,212.26 -178.04,-14.82 -226.54,-180.35 -165.29,-294.2 44.33,-82.37 216.83,-141.24 311.91,-8.41 0,0 -76.33,-39.81 -144.49,9.35 -40.22,29 -51.44,76.7 -37.26,115.55 18.82,51.49 60.24,72.44 111.14,72.44 87.92,0 234.57,-119.54 324.18,-166.53 297.72,-156.1 422.1,95.44 360.21,367.22 -2.73,10.11 -10.41,69.36 -11.9,78.59 40.16,17.28 144.08,34.54 139.27,66.26 12.77,-83.96 49.08,-187.99 90.96,-244.6 84.08,-113.7 248.79,-87.07 324.16,93.87 70.74,-114.63 210.21,-79.76 247.44,31.57 35.45,-88.64 116.81,-92.19 174.38,-31.13 65.52,69.51 92.56,154.16 109.98,221.44 1.28,-48.31 0.08,-112.43 -1.39,-162.75 l 0.01,0.04 c -0.01,-0.91 -4.23,-80.98 -4.23,-80.98 -4.79,-65.26 -10.48,-132.45 -22.24,-191.67 -12.03,-60.46 -30.38,-112.59 -60.56,-145.93 -129.12,-142.58 -298.11,-47.48 -257.18,72.01 34.58,100.99 138.4,64.54 138.4,64.54 0,0 -83.22,132.79 -226.24,53.63 -52.1,-28.83 -103.03,-127.98 -42.36,-234.32 100.26,-175.64 515.06,-117.05 578.36,313.44 6.87,46.83 14.43,115.29 20.42,190.38 17.43,63.53 54.46,153.52 125.59,177.7 72.42,24.57 123.49,-14.29 125.65,-81.46 -51.15,-5.91 -117.21,-32.4 -149,-67.43 -108.38,-119.47 38.89,-225.47 151.53,-124.62 38.78,34.79 62.53,96.32 69.1,159.78 25.88,4.17 48.68,6.1 67.26,6.89 -8.42,-152.45 -13.3,-324.33 -47.75,-476.57 -10.9,-48.19 -36.37,-85.21 -68.61,-103.07 -95.2,-52.75 -164.4,9.47 -179.48,42.81 -15.06,33.33 -24.87,75.75 23.92,125.48 48.75,49.75 150.61,9.88 150.61,9.88 0,0 -5.6,64.52 -95.39,89.76 -37.41,10.53 -94.57,11.83 -151.52,-35.07 -89.84,-74.01 -48.19,-261.35 139.82,-286.68 349.76,-47.18 342.13,476.23 349.16,630.77 24.26,46.92 63.8,97.55 125.93,107.21 75.58,11.75 119.22,-35.34 109.72,-101.89 -51.4,3 -121.04,-11.67 -158.41,-40.71 -69.49,-54.05 -51.12,-101.72 -41.81,-128.64 7.84,-22.65 80.45,-75.75 169.58,-20.23 44.22,27.54 78.21,84.05 95.62,145.42 44.74,-0.59 79.61,-6.05 99.55,-10.12 -5.92,-45.37 -8.47,-106.16 22.52,-139.57 26.17,-28.21 82.7,-22.15 114.32,-8.97 20.3,8.46 38.34,19.91 54.06,34.34 -16.54,-51.34 -22.88,-67.87 -29.51,-84.46 -161.15,-26.33 -316.88,-64.2 -346.34,-197.47 -34.25,-155 246.5,-256.37 398.83,72.88 3.19,6.9 17.5,40.4 32.56,76.27 50.06,-3.11 105.37,-12.67 155.85,-34.99 83.98,-37.16 154.45,-100.42 189.43,-174.75 19.99,-42.55 29.97,-102.13 -9.81,-196.7 -23.18,-55.08 -86.24,-114.81 -163.91,-112.21 -128.41,4.28 -162.87,103.32 -135.7,173.23 27.15,69.94 166.41,7.69 166.41,7.69 0,0 -10.17,92.18 -139.26,92.18 -185.69,0.05 -218.05,-274.79 16.99,-327.41 54.34,-12.17 101.47,-5 141.93,13 107.77,28.87 181.79,131.27 194.59,240.61 l 0.12,0.38 -0.08,-0.04 c 5.26,45.48 -0.08,92.09 -18,135.07 29.77,-39.71 54.72,-88.42 82.45,-143.53 166.38,-330.88 280.99,-409.84 448.82,-433.77 215.41,-30.73 386.31,97.36 435.79,256.25 71.09,228.19 -35.55,426.46 -245.2,465.03"
         style="fill:#d42132;fill-opacity:1;fill-rule:nonzero;stroke:none"
         id="path48" />
      <path
         d="m 4707.59,2672.97 c -330.16,114.82 -473.27,-6.32 -473.27,-6.32 -19.32,-25.09 14.13,-35.23 44.91,-18.82 110.84,59.05 253.45,44.56 410.53,-3.59 -54.19,-67.83 -110.67,-138.42 -177.65,-185.65 -231.2,-163.02 -460.61,-53.63 -447.02,136.54 11.67,163.46 134.04,275.46 394.19,241.67 42.5,-5.54 176.29,-45.26 288.43,-90.98 -12.39,-24.43 -25.76,-48.86 -40.12,-72.85 z m -255.36,512.1 c -164.66,-120.26 -177,222.79 -47.69,267.18 86.5,29.68 43.42,-120.77 47.69,-267.18 z m 789.34,98.37 c -119.35,-154.17 -58.23,-305.77 -5.61,-349.75 114.08,-95.41 209.47,-11.25 209.47,-11.25 0,0 -116.95,11.14 -103.04,147.03 13.26,129.81 134.02,211.07 294.18,182.97 270.86,-47.55 292.33,-394.87 48.3,-548.82 -131.64,-83.05 -326.58,-85.8 -538.69,-40.69 -77.49,20.41 -195.94,50.68 -304.4,89.8 103.81,181.61 197.48,432.46 227.83,521.02 23.52,49.54 45.07,89.33 60.58,104.59 37.46,40.58 -97.7,91.05 -124.43,58.36 -19.78,-24.85 -52.59,-149.5 -82.01,-210.8 -14.02,-29.15 -34.24,-63.23 -58.08,-85.36 -10.59,-9.81 -20.53,-13.97 -29.81,-12.49 -60.21,9.71 -15.33,217.6 28.8,286 26.57,41.25 37.11,41.96 33.5,56.63 -8.7,35.53 -97.12,56.44 -123.64,37.15 -15.17,-10.99 -66.35,-135.27 -85.1,-250.55 -17.96,-41.35 -44.26,-85.11 -87.99,-81.68 -64.99,5.13 -13.85,267.9 14.23,329.05 19.81,43.08 -54.25,62.96 -99.17,46.69 -20.49,-7.35 -24.43,-14.38 -37.79,-79.5 -17.46,57.14 -124.65,75.82 -203.19,2.85 -71.38,-66.27 -77.26,-192.94 -64.54,-269.35 30.86,-185.17 204.41,-177.05 257.38,-58.94 32.81,-113.42 148.87,-93.27 213.55,14.41 1.73,-16.1 4.52,-32.56 9.08,-47.48 l 0.5,0.7 c 9.94,-29.91 28.71,-50.79 60.23,-55.87 46.42,-7.46 88.77,4.27 126.22,32.34 -5.3,-38.97 -17.93,-131.57 -113.84,-309.98 -76.33,26.99 -165.03,57.76 -229.56,77.41 -248.84,75.75 -416.61,29.46 -516.2,-75.76 -50.52,-53.34 -95.4,-130.15 -94.25,-205.72 4.46,-295.56 329.89,-314.25 464.55,-256.28 160.94,69.3 261.9,168.34 358.65,300.05 95.87,-36.31 164.04,-102.18 198.76,-163.5 56.12,-99.13 72.37,-292.31 -113.73,-328.96 -158.82,-31.28 -258.02,142.6 -162.95,258.95 0,0 -127.28,-80.22 -103.33,-226.74 33.15,-202.77 303.83,-247.1 438.01,-88.55 61.71,72.93 70.17,183.96 54.22,256.23 -38.24,173.4 -183.3,274.96 -287.93,321.4 7.58,9.82 14.39,19 20.34,27.42 8.79,12.43 17.46,25.45 26.04,38.83 944.82,-355.84 1143.08,111.74 1122.53,356.79 -30.71,365.7 -518.11,443.27 -697.67,211.35"
         style="fill:#d42132;fill-opacity:1;fill-rule:nonzero;stroke:none"
         id="path50" />
    </g>
  </g>
</svg>
